<svg width="145" height="145" viewBox="0 0 145 145" fill="none" xmlns="http://www.w3.org/2000/svg">
<path d="M18.125 19.125C18.125 18.5727 18.5727 18.125 19.125 18.125H125.875C126.427 18.125 126.875 18.5727 126.875 19.125V126.875H18.125V19.125Z" stroke="#100F10" stroke-width="5" stroke-linejoin="round"/>
<path fill-rule="evenodd" clip-rule="evenodd" d="M36.25 42.2917C39.5867 42.2917 42.2916 39.5867 42.2916 36.25C42.2916 32.9133 39.5867 30.2083 36.25 30.2083C32.9133 30.2083 30.2083 32.9133 30.2083 36.25C30.2083 39.5867 32.9133 42.2917 36.25 42.2917Z" fill="#100F10"/>
<path fill-rule="evenodd" clip-rule="evenodd" d="M54.375 42.2917C57.7117 42.2917 60.4166 39.5867 60.4166 36.25C60.4166 32.9133 57.7117 30.2083 54.375 30.2083C51.0383 30.2083 48.3333 32.9133 48.3333 36.25C48.3333 39.5867 51.0383 42.2917 54.375 42.2917Z" fill="#100F10"/>
<path fill-rule="evenodd" clip-rule="evenodd" d="M72.5 42.2917C75.8367 42.2917 78.5416 39.5867 78.5416 36.25C78.5416 32.9133 75.8367 30.2083 72.5 30.2083C69.1633 30.2083 66.4583 32.9133 66.4583 36.25C66.4583 39.5867 69.1633 42.2917 72.5 42.2917Z" fill="#100F10"/>
<path d="M126.875 54.375H18.125" stroke="#100F10" stroke-width="5" stroke-linecap="round"/>
<path d="M41.5 72.5H106.5V108.5H41.5V72.5Z" stroke="#100F10" stroke-width="5"/>
<line y1="-2.5" x2="70.9857" y2="-2.5" transform="matrix(0.876546 0.481318 -0.57967 0.814851 39 76.8333)" stroke="#100F10" stroke-width="5"/>
<line y1="-2.5" x2="68.7526" y2="-2.5" transform="matrix(0.867778 -0.496951 0.595833 0.803108 46.7778 111)" stroke="#100F10" stroke-width="5"/>
</svg>
