<svg width="145" height="145" viewBox="0 0 145 145" fill="none" xmlns="http://www.w3.org/2000/svg">
<path d="M33.2292 117.812C33.2292 117.812 54.375 108.75 60.4167 102.708C66.4583 96.6667 48.3333 96.6667 48.3333 66.4583C48.3333 36.25 72.5 36.25 72.5 36.25C72.5 36.25 96.6666 36.25 96.6666 66.4583C96.6666 96.6667 78.5417 96.6667 84.5833 102.708C90.625 108.75 111.771 117.812 111.771 117.812" stroke="#100F10" stroke-width="5" stroke-linecap="round"/>
<path fill-rule="evenodd" clip-rule="evenodd" d="M72.5 132.917C105.867 132.917 132.917 105.867 132.917 72.5C132.917 39.1328 105.867 12.0833 72.5 12.0833C39.1328 12.0833 12.0833 39.1328 12.0833 72.5C12.0833 105.867 39.1328 132.917 72.5 132.917Z" stroke="#100F10" stroke-width="5"/>
</svg>
